<?xml version="1.0" standalone="no"?>
<!DOCTYPE svg PUBLIC "-//W3C//DTD SVG 20010904//EN"
 "http://www.w3.org/TR/2001/REC-SVG-20010904/DTD/svg10.dtd">
<svg version="1.0" xmlns="http://www.w3.org/2000/svg"
 width="2400.000000pt" height="819.000000pt" viewBox="0 0 2400.000000 819.000000"
 preserveAspectRatio="xMidYMid meet">

<g transform="translate(0.000000,819.000000) scale(0.100000,-0.100000)"
fill="#000000" stroke="none">
<path d="M9287 5159 c4 -13 8 -18 11 -10 2 7 -1 18 -6 23 -8 8 -9 4 -5 -13z"/>
<path d="M9236 5153 c-11 -11 -6 -21 14 -26 11 -3 20 -3 20 0 0 10 -28 32 -34
26z"/>
<path d="M8910 5130 c0 -5 5 -10 10 -10 6 0 10 5 10 10 0 6 -4 10 -10 10 -5 0
-10 -4 -10 -10z"/>
<path d="M8878 5123 c7 -3 16 -2 19 1 4 3 -2 6 -13 5 -11 0 -14 -3 -6 -6z"/>
<path d="M8808 5042 c-27 -5 -24 -52 3 -52 13 0 18 4 13 12 -5 7 -2 9 7 6 9
-4 14 2 14 17 0 22 -5 24 -37 17z"/>
<path d="M8810 4967 c0 -4 -6 -5 -12 -1 -9 5 -10 4 -3 -4 16 -17 49 -18 52 -2
2 10 -4 16 -17 16 -11 0 -20 -4 -20 -9z"/>
<path d="M11095 4930 c3 -5 8 -10 11 -10 2 0 4 5 4 10 0 6 -5 10 -11 10 -5 0
-7 -4 -4 -10z"/>
<path d="M19958 4511 c-26 -14 -48 -28 -48 -31 0 -4 21 -5 86 -1 15 1 23 9 26
25 7 35 -10 37 -64 7z"/>
<path d="M14188 4505 c-21 -14 -43 -35 -49 -48 -11 -20 -11 -21 4 -8 10 7 17
9 17 3 0 -13 69 11 80 27 4 7 10 12 14 12 30 -4 37 13 9 23 -10 3 -23 8 -28
11 -6 3 -27 -6 -47 -20z"/>
<path d="M13120 4509 c0 -5 5 -7 10 -4 6 3 10 8 10 11 0 2 -4 4 -10 4 -5 0
-10 -5 -10 -11z"/>
<path d="M13295 4270 c3 -5 15 -10 26 -10 11 0 17 5 14 10 -3 6 -15 10 -26 10
-11 0 -17 -4 -14 -10z"/>
<path d="M13301 4224 c0 -11 3 -14 6 -6 3 7 2 16 -1 19 -3 4 -6 -2 -5 -13z"/>
<path d="M15680 4228 c0 -4 5 -8 11 -8 5 0 7 -6 3 -12 -4 -7 -3 -9 1 -5 15 13
14 34 -1 34 -8 0 -14 -4 -14 -9z"/>
<path d="M19664 4209 c-10 -16 -13 -69 -3 -63 5 3 7 9 5 13 -3 4 9 6 25 5 34
-2 49 18 27 38 -16 15 -46 19 -54 7z"/>
<path d="M19911 4103 c0 -4 4 -17 9 -28 8 -19 9 -19 9 2 1 12 -3 25 -9 28 -5
3 -10 3 -9 -2z"/>
<path d="M10586 3792 c-3 -5 1 -9 9 -9 8 0 12 4 9 9 -3 4 -7 8 -9 8 -2 0 -6
-4 -9 -8z"/>
<path d="M15810 3742 c0 -4 -10 -12 -22 -17 -29 -13 -35 -35 -10 -35 27 0 67
34 58 48 -8 13 -26 16 -26 4z"/>
<path d="M14874 3708 c3 -15 26 -23 26 -8 0 6 -4 9 -9 6 -5 -4 -12 -1 -14 4
-3 6 -4 5 -3 -2z"/>
<path d="M12681 3682 c-6 -2 -11 -7 -11 -11 0 -8 86 2 94 10 6 5 -68 6 -83 1z"/>
<path d="M16121 3653 c-13 -3 -33 -13 -45 -24 -20 -19 -20 -19 -1 -16 11 2 30
8 41 15 12 6 24 9 27 5 4 -3 13 -1 20 5 8 7 18 8 22 4 5 -4 5 -1 1 6 -7 12
-21 13 -65 5z"/>
<path d="M15132 3641 c-11 -6 -10 -10 0 -19 11 -8 14 -7 15 9 2 22 2 21 -15
10z"/>
<path d="M15135 3581 c3 -5 -3 -16 -14 -23 -19 -13 -18 -14 3 -24 19 -9 21 -7
23 23 2 18 -2 33 -8 33 -5 0 -8 -4 -4 -9z"/>
<path d="M15133 3484 c0 -18 2 -22 8 -13 11 18 11 39 0 39 -5 0 -8 -12 -8 -26z"/>
<path d="M19897 3366 c-11 -28 -8 -53 8 -66 11 -9 15 -9 15 -1 0 7 4 10 9 6
15 -8 24 14 12 29 -6 7 -8 16 -4 19 3 4 -1 7 -9 7 -9 0 -18 5 -20 12 -3 7 -7
5 -11 -6z"/>
<path d="M19640 3231 c0 -6 5 -13 10 -16 6 -4 7 -11 4 -17 -4 -6 -2 -8 4 -4 5
3 13 0 15 -6 3 -8 6 -6 6 4 1 10 7 15 14 12 8 -3 19 1 25 9 9 10 6 13 -11 12
-12 0 -27 -4 -34 -8 -6 -4 -15 -2 -19 4 -4 8 -3 9 4 5 7 -4 12 -2 12 3 0 6 -7
11 -15 11 -8 0 -15 -4 -15 -9z"/>
<path d="M14888 3143 c-9 -2 -19 -11 -22 -19 -4 -11 -1 -11 19 2 14 9 25 18
25 20 0 2 -1 3 -2 3 -2 -1 -10 -3 -20 -6z"/>
<path d="M15181 3134 c0 -11 3 -14 6 -6 3 7 2 16 -1 19 -3 4 -6 -2 -5 -13z"/>
<path d="M15179 3103 c-1 -5 -1 -16 0 -25 1 -10 -3 -18 -10 -18 -8 0 -8 -4 -1
-12 6 -7 10 -17 10 -21 0 -5 4 -12 8 -15 4 -4 4 -2 1 5 -4 6 -1 14 5 16 7 3 8
6 3 6 -7 1 -9 16 -7 36 2 19 1 35 -2 35 -3 0 -7 -3 -7 -7z"/>
<path d="M16440 3090 c-19 -11 -31 -19 -27 -20 11 0 67 29 67 35 0 7 -1 7 -40
-15z"/>
<path d="M12880 2950 c-9 -6 -10 -10 -3 -10 6 0 15 5 18 10 8 12 4 12 -15 0z"/>
<path d="M17677 2944 c-11 -11 36 -46 55 -41 10 3 18 1 18 -4 0 -5 6 -9 13 -9
6 0 -1 12 -17 26 -16 14 -34 23 -42 20 -7 -3 -14 0 -16 5 -2 6 -7 7 -11 3z"/>
<path d="M19860 2936 c0 -13 46 -46 57 -42 7 3 13 1 13 -4 0 -5 14 -8 30 -8
17 1 30 2 30 4 0 6 -75 39 -90 39 -8 0 -21 4 -27 8 -7 5 -13 6 -13 3z"/>
<path d="M18143 2764 c9 -10 77 -13 77 -5 0 6 -18 9 -40 9 -23 0 -39 -2 -37
-4z"/>
<path d="M18238 2763 c7 -3 16 -2 19 1 4 3 -2 6 -13 5 -11 0 -14 -3 -6 -6z"/>
<path d="M18695 2500 c-3 -5 -1 -10 4 -10 6 0 11 5 11 10 0 6 -2 10 -4 10 -3
0 -8 -4 -11 -10z"/>
<path d="M18380 2233 c-18 -7 -37 -10 -44 -7 -6 4 -3 -2 8 -12 12 -12 20 -15
23 -7 2 6 17 9 36 7 24 -4 28 -2 17 5 -13 9 -13 11 3 11 9 0 17 4 17 8 0 13
-24 11 -60 -5z"/>
</g>
</svg>
